<svg width="743" height="267" viewBox="0 0 743 267" fill="none" xmlns="http://www.w3.org/2000/svg">
<g clip-path="url(#clip0_1201_17308)">
<path d="M332.2 172.01C337.84 176.617 344.996 178.92 353.67 178.92C361.476 178.92 367.81 177.213 372.67 173.8C374.986 172.236 376.865 170.108 378.132 167.617C379.398 165.125 380.01 162.353 379.91 159.56C379.91 155.113 378.576 151.587 375.91 148.98C373.016 146.243 369.492 144.262 365.65 143.21C360.062 141.649 354.385 140.427 348.65 139.55C337.263 137.59 328.206 134.39 321.48 129.95C314.753 125.51 311.39 118.293 311.39 108.3C311.28 102.273 312.98 96.3513 316.27 91.3001C319.664 86.2425 324.435 82.2623 330.02 79.8302C336.398 77.0214 343.311 75.6326 350.28 75.7601C357.622 75.6151 364.903 77.115 371.59 80.15C377.496 82.8442 382.56 87.0922 386.24 92.44C389.852 97.8288 391.926 104.1 392.24 110.58H378.24C377.898 107.459 376.93 104.438 375.394 101.699C373.858 98.9602 371.785 96.5592 369.3 94.64C364.2 90.64 357.866 88.64 350.3 88.64C342.733 88.64 336.713 90.3066 332.24 93.64C327.786 96.9733 325.56 101.61 325.56 107.55C325.56 111.89 326.863 115.28 329.47 117.72C332.357 120.323 335.812 122.216 339.56 123.25C345.119 124.817 350.77 126.04 356.48 126.91C367.866 128.87 376.98 132.1 383.82 136.6C390.66 141.1 394.076 148.34 394.07 158.32C394.164 164.509 392.375 170.581 388.94 175.73C385.376 180.956 380.414 185.073 374.62 187.61C367.987 190.534 360.797 191.977 353.55 191.84C344.656 191.84 336.9 190.24 330.28 187.04C323.966 184.106 318.63 179.416 314.91 173.53C311.207 167.527 309.158 160.651 308.97 153.6H322.97C323.476 161.26 326.553 167.397 332.2 172.01Z" fill="white"/>
<path d="M422.02 76.71V126.33H480.92V76.71H495.08V190.77H480.92V139.35H422.02V190.77H407.86V76.71H422.02Z" fill="white"/>
<path d="M585.72 76.8999V89.8999H527.26V126.34H575.91V139.34H527.26V177.74H587.79V190.74H513.1V76.8398L585.72 76.8999Z" fill="white"/>
<path d="M599.71 76.8999H613.87V177.78H665.78V190.78H599.71V76.8999Z" fill="white"/>
<path d="M676.84 76.8999H691V177.78H742.91V190.78H676.84V76.8999Z" fill="white"/>
<path d="M146.12 17.5704L131.65 125.83H131.59L117.18 17.9803C116.651 14.3665 117.468 10.6842 119.476 7.63315C121.483 4.5821 124.542 2.37474 128.07 1.43027C130.065 0.9404 132.14 0.875738 134.162 1.24057C136.183 1.60541 138.105 2.39163 139.803 3.54795C141.5 4.70426 142.936 6.20485 144.015 7.95224C145.095 9.69963 145.795 11.6547 146.07 13.6903C146.252 14.9762 146.268 16.2802 146.12 17.5704Z" fill="url(#paint0_linear_1201_17308)"/>
<path d="M99.1297 22.0103L114.24 130.45C114.24 130.45 114.24 130.5 114.18 130.45L73.1798 29.3702C71.8074 26.0951 71.7434 22.4183 73.0011 19.0975C74.2587 15.7766 76.7422 13.0647 79.9398 11.5203C81.6113 10.7515 83.4212 10.3295 85.2603 10.2798C87.0995 10.2302 88.9297 10.5541 90.6402 11.2318C92.3507 11.9094 93.9061 12.9268 95.2122 14.2225C96.5184 15.5182 97.5483 17.0653 98.2397 18.7703C98.6654 19.8107 98.9642 20.8985 99.1297 22.0103Z" fill="url(#paint1_linear_1201_17308)"/>
<path d="M190.19 29.0002L149.01 130.65C149.01 130.65 148.94 130.65 148.95 130.65L164.05 22.4301C164.503 18.9082 166.289 15.6941 169.04 13.4489C171.791 11.2038 175.298 10.0982 178.84 10.3601C180.671 10.529 182.449 11.0679 184.065 11.9438C185.682 12.8198 187.104 14.0147 188.246 15.4563C189.387 16.8979 190.224 18.5562 190.706 20.3308C191.188 22.1053 191.305 23.9592 191.05 25.7802C190.894 26.8843 190.605 27.9654 190.19 29.0002Z" fill="url(#paint2_linear_1201_17308)"/>
<path d="M29.7899 77.3304L96.7899 160.5L13.9099 93.7903C11.5983 91.9764 10.0445 89.3671 9.55093 86.4705C9.05738 83.5739 9.6594 80.5972 11.2399 78.1202C12.1316 76.7839 13.2919 75.648 14.6468 74.7847C16.0016 73.9214 17.5214 73.3497 19.1093 73.106C20.6972 72.8624 22.3184 72.9521 23.8698 73.3694C25.4211 73.7868 26.8686 74.5228 28.1199 75.5303C28.7381 76.0701 29.2979 76.6735 29.7899 77.3304Z" fill="url(#paint3_linear_1201_17308)"/>
<path d="M16.6898 116.94L101.32 177.89C101.32 177.89 101.32 177.96 101.32 177.94L6.57967 135.28C3.98331 134.16 1.93037 132.066 0.862506 129.448C-0.205357 126.829 -0.202766 123.897 0.869708 121.28C1.4233 119.997 2.22649 118.836 3.2325 117.866C4.23851 116.895 5.42724 116.134 6.72982 115.627C8.0324 115.12 9.42278 114.877 10.8201 114.912C12.2175 114.947 13.594 115.259 14.8697 115.83C15.5109 116.141 16.1205 116.512 16.6898 116.94Z" fill="url(#paint4_linear_1201_17308)"/>
<path d="M16.8999 154.85L113.98 190.66C113.98 190.66 113.98 190.73 113.98 190.72L11.9799 173.2C9.48929 172.772 7.27021 171.373 5.80972 169.311C4.34923 167.249 3.76674 164.691 4.18997 162.2C4.6177 159.71 6.01667 157.491 8.07937 156.033C10.1421 154.574 12.6997 153.994 15.19 154.42C15.7721 154.51 16.3446 154.653 16.8999 154.85Z" fill="url(#paint5_linear_1201_17308)"/>
<path d="M250.84 173.31L149.26 190.71C149.26 190.71 149.26 190.71 149.26 190.65L245.66 155.05C247.839 154.204 250.249 154.169 252.451 154.95C254.654 155.732 256.502 157.28 257.66 159.31C258.316 160.513 258.706 161.844 258.802 163.211C258.899 164.579 258.7 165.951 258.219 167.234C257.738 168.518 256.986 169.683 256.015 170.65C255.043 171.617 253.875 172.364 252.59 172.84C252.021 173.048 251.436 173.205 250.84 173.31Z" fill="url(#paint6_linear_1201_17308)"/>
<path d="M257.01 135.15L162.01 177.94V177.88L246.59 116.96C248.862 115.327 251.69 114.662 254.451 115.112C257.213 115.562 259.684 117.09 261.32 119.36C262.13 120.484 262.711 121.757 263.03 123.105C263.348 124.454 263.398 125.852 263.176 127.22C262.954 128.588 262.465 129.899 261.736 131.077C261.008 132.256 260.054 133.28 258.93 134.09C258.327 134.506 257.683 134.861 257.01 135.15Z" fill="url(#paint7_linear_1201_17308)"/>
<path d="M249.87 93.4298L166.49 160.6L233.41 77.5199C235.224 75.2083 237.833 73.6543 240.729 73.1608C243.626 72.6672 246.603 73.2693 249.08 74.8498C250.415 75.7423 251.55 76.9032 252.413 78.2585C253.275 79.6137 253.846 81.1337 254.088 82.7216C254.331 84.3095 254.241 85.9304 253.822 87.4814C253.404 89.0323 252.668 90.4792 251.66 91.7299C251.125 92.3587 250.525 92.9286 249.87 93.4298Z" fill="url(#paint8_linear_1201_17308)"/>
<path d="M226.34 56.3601L161.79 143.22L204.58 44.2702C205.808 41.3196 208.092 38.9326 210.986 37.5754C213.88 36.2182 217.176 35.9881 220.23 36.9301C221.89 37.4756 223.418 38.3612 224.717 39.5305C226.016 40.6998 227.056 42.1271 227.772 43.7212C228.488 45.3152 228.864 47.0411 228.876 48.7885C228.888 50.536 228.535 52.2666 227.84 53.8701C227.434 54.7535 226.931 55.5888 226.34 56.3601Z" fill="url(#paint9_linear_1201_17308)"/>
<path d="M58.55 43.8598L101.46 143.12H101.4L37.14 56.6598C35.2016 54.1182 34.2783 50.9461 34.55 47.7611C34.8218 44.5762 36.269 41.6064 38.61 39.4298C39.9148 38.2667 41.4474 37.3879 43.1102 36.849C44.7731 36.3102 46.5298 36.1231 48.2688 36.3C50.0078 36.4768 51.691 37.0137 53.2114 37.8761C54.7318 38.7386 56.056 39.908 57.1 41.31C57.6762 42.1037 58.1626 42.9587 58.55 43.8598Z" fill="url(#paint10_linear_1201_17308)"/>
<path d="M30.6799 195.42C28.9448 195.416 27.2419 195.889 25.757 196.787C24.272 197.684 23.0619 198.972 22.2584 200.51C21.4549 202.048 21.0889 203.777 21.2002 205.508C21.3116 207.24 21.896 208.908 22.8899 210.33C35.1895 227.715 51.4823 241.894 70.3991 251.675C89.3158 261.456 110.304 266.554 131.6 266.54C152.896 266.554 173.884 261.456 192.801 251.675C211.718 241.894 228.01 227.715 240.31 210.33C241.303 208.909 241.888 207.241 241.999 205.511C242.111 203.78 241.746 202.052 240.944 200.514C240.141 198.977 238.933 197.689 237.449 196.791C235.966 195.892 234.264 195.418 232.53 195.42H30.6799Z" fill="url(#paint11_radial_1201_17308)"/>
</g>
<defs>
<linearGradient id="paint0_linear_1201_17308" x1="131.64" y1="1.55024" x2="131.64" y2="124.92" gradientUnits="userSpaceOnUse">
<stop offset="0.21" stop-color="#78E6F9"/>
<stop offset="1" stop-color="#005283"/>
</linearGradient>
<linearGradient id="paint1_linear_1201_17308" x1="82.2198" y1="11.6203" x2="115.52" y2="129.65" gradientUnits="userSpaceOnUse">
<stop offset="0.21" stop-color="#78E6F9"/>
<stop offset="1" stop-color="#005283"/>
</linearGradient>
<linearGradient id="paint2_linear_1201_17308" x1="180.87" y1="11.1301" x2="150.21" y2="130.81" gradientUnits="userSpaceOnUse">
<stop offset="0.21" stop-color="#78E6F9"/>
<stop offset="1" stop-color="#005283"/>
</linearGradient>
<linearGradient id="paint3_linear_1201_17308" x1="12.8099" y1="76.7802" x2="96.8501" y2="158.84" gradientUnits="userSpaceOnUse">
<stop offset="0.21" stop-color="#78E6F9"/>
<stop offset="1" stop-color="#005283"/>
</linearGradient>
<linearGradient id="paint4_linear_1201_17308" x1="1.3197" y1="120.33" x2="102.47" y2="177.001" gradientUnits="userSpaceOnUse">
<stop offset="0.21" stop-color="#78E6F9"/>
<stop offset="1" stop-color="#005283"/>
</linearGradient>
<linearGradient id="paint5_linear_1201_17308" x1="3.89996" y1="161.21" x2="113.91" y2="190.53" gradientUnits="userSpaceOnUse">
<stop offset="0.21" stop-color="#78E6F9"/>
<stop offset="1" stop-color="#005283"/>
</linearGradient>
<linearGradient id="paint6_linear_1201_17308" x1="259.28" y1="161.08" x2="149.6" y2="192.04" gradientUnits="userSpaceOnUse">
<stop offset="0.21" stop-color="#78E6F9"/>
<stop offset="1" stop-color="#005283"/>
</linearGradient>
<linearGradient id="paint7_linear_1201_17308" x1="261.9" y1="120.12" x2="162.39" y2="178.44" gradientUnits="userSpaceOnUse">
<stop offset="0.21" stop-color="#78E6F9"/>
<stop offset="1" stop-color="#005283"/>
</linearGradient>
<linearGradient id="paint8_linear_1201_17308" x1="251.15" y1="75.7798" x2="168.1" y2="160.14" gradientUnits="userSpaceOnUse">
<stop offset="0.21" stop-color="#78E6F9"/>
<stop offset="1" stop-color="#005283"/>
</linearGradient>
<linearGradient id="paint9_linear_1201_17308" x1="222.48" y1="37.9201" x2="162.82" y2="142.74" gradientUnits="userSpaceOnUse">
<stop offset="0.21" stop-color="#78E6F9"/>
<stop offset="1" stop-color="#005283"/>
</linearGradient>
<linearGradient id="paint10_linear_1201_17308" x1="40.7699" y1="38.1898" x2="102.41" y2="143.34" gradientUnits="userSpaceOnUse">
<stop offset="0.21" stop-color="#78E6F9"/>
<stop offset="1" stop-color="#005283"/>
</linearGradient>
<radialGradient id="paint11_radial_1201_17308" cx="0" cy="0" r="1" gradientUnits="userSpaceOnUse" gradientTransform="translate(132.99 192.306) scale(113.77 70.5375)">
<stop stop-color="#1E77A1"/>
<stop offset="1" stop-color="#78E6F9"/>
</radialGradient>
<clipPath id="clip0_1201_17308">
<rect width="742.91" height="265.54" fill="white" transform="translate(0 0.540039)"/>
</clipPath>
</defs>
</svg>
