<svg width="743" height="266" viewBox="0 0 743 266" fill="none" xmlns="http://www.w3.org/2000/svg">
<g clip-path="url(#clip0_1201_17306)">
<path d="M332.2 171.01C337.84 175.617 344.996 177.92 353.67 177.92C361.476 177.92 367.81 176.213 372.67 172.8C374.985 171.235 376.864 169.107 378.13 166.616C379.397 164.125 380.009 161.353 379.91 158.56C379.91 154.113 378.576 150.587 375.91 147.98C373.016 145.243 369.492 143.262 365.65 142.21C360.061 140.65 354.384 139.425 348.65 138.54C337.263 136.593 328.206 133.393 321.48 128.94C314.753 124.487 311.39 117.273 311.39 107.3C311.278 101.273 312.978 95.3505 316.27 90.3001C319.664 85.2425 324.435 81.2623 330.02 78.8302C336.397 76.0168 343.311 74.6278 350.28 74.7601C357.622 74.6151 364.903 76.115 371.59 79.15C377.496 81.8442 382.56 86.0922 386.24 91.44C389.852 96.8288 391.926 103.1 392.24 109.58H378.24C377.897 106.457 376.929 103.436 375.393 100.695C373.857 97.955 371.785 95.552 369.3 93.63C364.2 89.63 357.866 87.63 350.3 87.63C342.733 87.63 336.713 89.2966 332.24 92.63C327.786 95.9633 325.56 100.6 325.56 106.54C325.56 110.88 326.863 114.27 329.47 116.71C332.361 119.308 335.814 121.201 339.56 122.24C345.119 123.807 350.77 125.03 356.48 125.9C367.866 127.853 376.98 131.08 383.82 135.58C390.66 140.08 394.076 147.323 394.07 157.31C394.164 163.499 392.375 169.571 388.94 174.72C385.376 179.946 380.414 184.063 374.62 186.6C367.987 189.524 360.797 190.968 353.55 190.83C344.656 190.83 336.9 189.23 330.28 186.03C323.968 183.093 318.633 178.403 314.91 172.52C311.207 166.517 309.158 159.641 308.97 152.59H322.97C323.476 160.257 326.553 166.397 332.2 171.01Z" fill="#282828"/>
<path d="M422.02 75.73V125.36H480.92V75.73H495.08V189.8H480.92V138.38H422.02V189.8H407.86V75.73H422.02Z" fill="#282828"/>
<path d="M585.72 75.8999V88.8999H527.26V125.35H575.91V138.35H527.26V176.75H587.79V189.75H513.1V75.8501L585.72 75.8999Z" fill="#282828"/>
<path d="M599.71 75.8999H613.87V176.78H665.78V189.78H599.71V75.8999Z" fill="#282828"/>
<path d="M676.84 75.8999H691V176.78H742.91V189.78H676.84V75.8999Z" fill="#282828"/>
<path d="M146.12 16.5704L131.65 124.82H131.59L117.18 16.9703C116.652 13.3577 117.469 9.67694 119.477 6.62754C121.485 3.57814 124.543 1.37264 128.07 0.430271C130.065 -0.0596001 132.14 -0.124262 134.162 0.240574C136.183 0.60541 138.105 1.39163 139.803 2.54795C141.501 3.70426 142.936 5.20485 144.016 6.95224C145.095 8.69963 145.796 10.6547 146.07 12.6903C146.252 13.9762 146.269 15.2802 146.12 16.5704Z" fill="url(#paint0_linear_1201_17306)"/>
<path d="M99.1297 21.0101L114.24 129.44C114.24 129.44 114.24 129.49 114.18 129.44L73.1798 28.3599C71.8074 25.0848 71.7434 21.4081 73.0011 18.0872C74.2587 14.7664 76.7422 12.0545 79.9398 10.5101C81.6113 9.74121 83.4212 9.3192 85.2603 9.2696C87.0995 9.21999 88.9297 9.54384 90.6402 10.2215C92.3507 10.8992 93.9061 11.9165 95.2122 13.2122C96.5184 14.5079 97.5483 16.0551 98.2397 17.7601C98.667 18.8033 98.9659 19.8947 99.1297 21.0101Z" fill="url(#paint1_linear_1201_17306)"/>
<path d="M190.19 28L149.01 129.65C149.01 129.65 148.94 129.65 148.95 129.65L164.05 21.4299C164.503 17.9071 166.289 14.6921 169.04 12.4453C171.79 10.1985 175.297 9.09086 178.84 9.35005C180.671 9.52023 182.449 10.0599 184.066 10.937C185.683 11.814 187.105 13.0099 188.246 14.4523C189.388 15.8947 190.225 17.5537 190.707 19.3288C191.188 21.1039 191.305 22.9584 191.05 24.78C190.894 25.884 190.605 26.9651 190.19 28Z" fill="url(#paint2_linear_1201_17306)"/>
<path d="M29.7899 76.3204L96.7899 159.5L13.9099 92.7903C11.5983 90.9764 10.0445 88.3671 9.55093 85.4705C9.05738 82.5739 9.6594 79.5972 11.2399 77.1202C12.1316 75.7839 13.2919 74.648 14.6468 73.7847C16.0016 72.9214 17.5214 72.3497 19.1093 72.106C20.6972 71.8624 22.3184 71.9521 23.8698 72.3694C25.4211 72.7868 26.8686 73.5228 28.1199 74.5303C28.7379 75.0667 29.2977 75.6667 29.7899 76.3204Z" fill="url(#paint3_linear_1201_17306)"/>
<path d="M16.6902 115.94L101.32 176.89C101.32 176.89 101.32 176.96 101.32 176.94L6.58008 134.28C3.98545 133.158 1.93427 131.063 0.866701 128.446C-0.200869 125.828 -0.199683 122.897 0.870119 120.28C1.42465 118.997 2.22845 117.838 3.23486 116.868C4.24128 115.899 5.4303 115.139 6.73279 114.633C8.03528 114.127 9.42535 113.884 10.8223 113.92C12.2192 113.955 13.5951 114.268 14.8701 114.84C15.5109 115.147 16.1205 115.515 16.6902 115.94Z" fill="url(#paint4_linear_1201_17306)"/>
<path d="M16.8999 153.85L113.98 189.66C113.98 189.66 113.98 189.73 113.98 189.72L11.9799 172.2C9.48929 171.772 7.27021 170.374 5.80972 168.312C4.34923 166.249 3.76674 163.692 4.18997 161.2C4.61784 158.71 6.01633 156.491 8.07864 155.03C10.141 153.57 12.6986 152.987 15.19 153.41C15.7714 153.508 16.3434 153.655 16.8999 153.85Z" fill="url(#paint5_linear_1201_17306)"/>
<path d="M250.84 172.31L149.26 189.73C149.26 189.73 149.26 189.68 149.26 189.67L245.66 154.07C247.839 153.224 250.249 153.189 252.451 153.97C254.654 154.752 256.502 156.3 257.66 158.33C258.316 159.533 258.706 160.864 258.802 162.231C258.899 163.599 258.7 164.971 258.219 166.254C257.738 167.538 256.986 168.703 256.015 169.67C255.043 170.637 253.875 171.384 252.59 171.86C252.021 172.061 251.435 172.212 250.84 172.31Z" fill="url(#paint6_linear_1201_17306)"/>
<path d="M257.01 134.15L162.01 176.94C162.01 176.94 161.95 176.94 162.01 176.88L246.59 115.96C247.715 115.15 248.988 114.569 250.337 114.252C251.686 113.934 253.084 113.885 254.452 114.108C255.82 114.331 257.131 114.821 258.309 115.551C259.488 116.28 260.511 117.235 261.32 118.36C262.131 119.484 262.712 120.757 263.03 122.105C263.349 123.454 263.399 124.852 263.177 126.22C262.955 127.588 262.465 128.899 261.737 130.077C261.008 131.256 260.054 132.28 258.93 133.09C258.327 133.506 257.684 133.861 257.01 134.15Z" fill="url(#paint7_linear_1201_17306)"/>
<path d="M249.87 92.4299L166.49 159.59L233.41 76.51C235.222 74.1965 237.832 72.6411 240.729 72.1474C243.626 71.6538 246.603 72.2573 249.08 73.8401C250.415 74.7326 251.55 75.8933 252.413 77.2485C253.275 78.6038 253.846 80.1238 254.088 81.7117C254.331 83.2995 254.241 84.9205 253.822 86.4714C253.404 88.0224 252.668 89.4693 251.66 90.72C251.126 91.3523 250.526 91.9255 249.87 92.4299Z" fill="url(#paint8_linear_1201_17306)"/>
<path d="M226.34 55.3502L161.79 142.22L204.58 43.22C205.812 40.2727 208.097 37.8895 210.99 36.5345C213.883 35.1795 217.177 34.9497 220.23 35.89C221.89 36.4354 223.418 37.3213 224.717 38.4905C226.016 39.6598 227.056 41.0869 227.772 42.681C228.488 44.275 228.864 46.0009 228.876 47.7484C228.888 49.4958 228.535 51.2267 227.84 52.8301C227.439 53.7255 226.936 54.5712 226.34 55.3502Z" fill="url(#paint9_linear_1201_17306)"/>
<path d="M58.55 42.8502L101.46 142.11C101.46 142.11 101.46 142.17 101.4 142.11L37.14 55.6601C35.2016 53.1184 34.2783 49.9463 34.55 46.7614C34.8218 43.5765 36.269 40.6067 38.61 38.4301C39.9141 37.2655 41.4466 36.3853 43.1096 35.8456C44.7726 35.3059 46.5298 35.1187 48.2693 35.2956C50.0087 35.4724 51.6922 36.0096 53.2126 36.873C54.733 37.7363 56.0569 38.907 57.1 40.3102C57.6739 41.1018 58.1602 41.9535 58.55 42.8502Z" fill="url(#paint10_linear_1201_17306)"/>
<path d="M30.6799 194.42C28.9448 194.416 27.2419 194.889 25.757 195.787C24.272 196.684 23.0619 197.972 22.2584 199.51C21.4549 201.048 21.0889 202.777 21.2002 204.508C21.3116 206.24 21.896 207.908 22.8899 209.33C35.1895 226.715 51.4823 240.894 70.3991 250.675C89.3158 260.456 110.304 265.554 131.6 265.54C152.896 265.554 173.884 260.456 192.801 250.675C211.718 240.894 228.01 226.715 240.31 209.33C241.303 207.909 241.888 206.241 241.999 204.511C242.111 202.78 241.746 201.052 240.944 199.514C240.141 197.977 238.933 196.689 237.449 195.791C235.966 194.893 234.264 194.418 232.53 194.42H30.6799Z" fill="url(#paint11_radial_1201_17306)"/>
</g>
<defs>
<linearGradient id="paint0_linear_1201_17306" x1="131.64" y1="0.550245" x2="131.64" y2="123.92" gradientUnits="userSpaceOnUse">
<stop offset="0.24" stop-color="#63BCF4"/>
<stop offset="0.68" stop-color="#78E6F9"/>
<stop offset="1" stop-color="#BCE7FF"/>
</linearGradient>
<linearGradient id="paint1_linear_1201_17306" x1="82.2198" y1="10.62" x2="115.52" y2="128.65" gradientUnits="userSpaceOnUse">
<stop offset="0.24" stop-color="#63BCF4"/>
<stop offset="0.68" stop-color="#78E6F9"/>
<stop offset="1" stop-color="#BCE7FF"/>
</linearGradient>
<linearGradient id="paint2_linear_1201_17306" x1="180.87" y1="10.13" x2="150.21" y2="129.81" gradientUnits="userSpaceOnUse">
<stop offset="0.24" stop-color="#63BCF4"/>
<stop offset="0.68" stop-color="#78E6F9"/>
<stop offset="1" stop-color="#BCE7FF"/>
</linearGradient>
<linearGradient id="paint3_linear_1201_17306" x1="12.8099" y1="75.7802" x2="96.8501" y2="157.84" gradientUnits="userSpaceOnUse">
<stop offset="0.24" stop-color="#63BCF4"/>
<stop offset="0.68" stop-color="#78E6F9"/>
<stop offset="1" stop-color="#BCE7FF"/>
</linearGradient>
<linearGradient id="paint4_linear_1201_17306" x1="1.32015" y1="119.33" x2="102.47" y2="176" gradientUnits="userSpaceOnUse">
<stop offset="0.24" stop-color="#63BCF4"/>
<stop offset="0.68" stop-color="#78E6F9"/>
<stop offset="1" stop-color="#BCE7FF"/>
</linearGradient>
<linearGradient id="paint5_linear_1201_17306" x1="3.89996" y1="160.21" x2="113.91" y2="189.53" gradientUnits="userSpaceOnUse">
<stop offset="0.24" stop-color="#63BCF4"/>
<stop offset="0.68" stop-color="#78E6F9"/>
<stop offset="1" stop-color="#BCE7FF"/>
</linearGradient>
<linearGradient id="paint6_linear_1201_17306" x1="259.28" y1="160.08" x2="149.6" y2="191.04" gradientUnits="userSpaceOnUse">
<stop offset="0.24" stop-color="#63BCF4"/>
<stop offset="0.68" stop-color="#78E6F9"/>
<stop offset="1" stop-color="#BCE7FF"/>
</linearGradient>
<linearGradient id="paint7_linear_1201_17306" x1="261.9" y1="119.12" x2="162.39" y2="177.44" gradientUnits="userSpaceOnUse">
<stop offset="0.24" stop-color="#63BCF4"/>
<stop offset="0.68" stop-color="#78E6F9"/>
<stop offset="1" stop-color="#BCE7FF"/>
</linearGradient>
<linearGradient id="paint8_linear_1201_17306" x1="251.15" y1="74.7799" x2="168.1" y2="159.14" gradientUnits="userSpaceOnUse">
<stop offset="0.24" stop-color="#63BCF4"/>
<stop offset="0.68" stop-color="#78E6F9"/>
<stop offset="1" stop-color="#BCE7FF"/>
</linearGradient>
<linearGradient id="paint9_linear_1201_17306" x1="222.48" y1="36.92" x2="162.82" y2="141.74" gradientUnits="userSpaceOnUse">
<stop offset="0.24" stop-color="#63BCF4"/>
<stop offset="0.68" stop-color="#78E6F9"/>
<stop offset="1" stop-color="#BCE7FF"/>
</linearGradient>
<linearGradient id="paint10_linear_1201_17306" x1="40.7699" y1="37.1901" x2="102.41" y2="142.34" gradientUnits="userSpaceOnUse">
<stop offset="0.24" stop-color="#63BCF4"/>
<stop offset="0.68" stop-color="#78E6F9"/>
<stop offset="1" stop-color="#BCE7FF"/>
</linearGradient>
<radialGradient id="paint11_radial_1201_17306" cx="0" cy="0" r="1" gradientUnits="userSpaceOnUse" gradientTransform="translate(136.132 187.527) rotate(90.31) scale(75.8301 113.745)">
<stop stop-color="#78E6F9"/>
<stop offset="1" stop-color="#63BCF4"/>
</radialGradient>
<clipPath id="clip0_1201_17306">
<rect width="742.91" height="265.54" fill="white"/>
</clipPath>
</defs>
</svg>
