<svg width="264" height="266" viewBox="0 0 264 266" fill="none" xmlns="http://www.w3.org/2000/svg">
<path d="M146.057 16.5626L131.587 124.822H131.527L117.117 16.9725C116.588 13.3587 117.405 9.67639 119.413 6.62534C121.42 3.57429 124.479 1.36693 128.007 0.422458C130.002 -0.0674118 132.077 -0.132074 134.099 0.232758C136.12 0.597598 138.042 1.38382 139.74 2.54014C141.437 3.69645 142.873 5.19704 143.952 6.94443C145.032 8.69182 145.732 10.6469 146.007 12.6825C146.189 13.9684 146.205 15.2724 146.057 16.5626Z" fill="url(#paint0_linear_27_59)"/>
<path d="M99.0662 21.0025L114.177 129.442C114.177 129.442 114.177 129.492 114.117 129.442L73.1163 28.3624C71.7439 25.0873 71.6799 21.4105 72.9376 18.0897C74.1952 14.7688 76.6787 12.0569 79.8763 10.5125C81.5478 9.74374 83.3577 9.32174 85.1968 9.27204C87.036 9.22244 88.8662 9.54634 90.5767 10.224C92.2872 10.9016 93.8426 11.919 95.1487 13.2147C96.4549 14.5104 97.4848 16.0575 98.1762 17.7625C98.6019 18.8029 98.9007 19.8907 99.0662 21.0025Z" fill="url(#paint1_linear_27_59)"/>
<path d="M190.127 27.9924L148.947 129.642C148.947 129.642 148.877 129.642 148.887 129.642L163.987 21.4223C164.44 17.9004 166.226 14.6863 168.977 12.4411C171.728 10.196 175.235 9.09037 178.777 9.35227C180.608 9.52117 182.386 10.0601 184.002 10.936C185.619 11.812 187.041 13.0069 188.183 14.4485C189.324 15.8901 190.161 17.5484 190.643 19.323C191.125 21.0975 191.242 22.9514 190.987 24.7724C190.831 25.8765 190.542 26.9576 190.127 27.9924Z" fill="url(#paint2_linear_27_59)"/>
<path d="M29.7264 76.3226L96.7264 159.492L13.8464 92.7825C11.5348 90.9686 9.98103 88.3593 9.48746 85.4627C8.99391 82.5661 9.59593 79.5894 11.1764 77.1124C12.0681 75.7761 13.2284 74.6402 14.5833 73.7769C15.9381 72.9136 17.4579 72.3419 19.0458 72.0982C20.6337 71.8546 22.2549 71.9443 23.8063 72.3616C25.3576 72.779 26.8051 73.515 28.0564 74.5225C28.6746 75.0623 29.2344 75.6657 29.7264 76.3226Z" fill="url(#paint3_linear_27_59)"/>
<path d="M16.6263 115.932L101.257 176.882C101.257 176.882 101.257 176.952 101.257 176.932L6.51619 134.272C3.91983 133.152 1.86689 131.058 0.79903 128.44C-0.268833 125.821 -0.266242 122.889 0.806232 120.272C1.35982 118.989 2.16301 117.828 3.16902 116.858C4.17503 115.887 5.36376 115.126 6.66634 114.619C7.96892 114.112 9.3593 113.869 10.7566 113.904C12.154 113.939 13.5305 114.251 14.8062 114.822C15.4474 115.133 16.057 115.504 16.6263 115.932Z" fill="url(#paint4_linear_27_59)"/>
<path d="M16.8364 153.842L113.917 189.652C113.917 189.652 113.917 189.722 113.917 189.712L11.9164 172.192C9.42581 171.764 7.20673 170.365 5.74624 168.303C4.28575 166.241 3.70326 163.683 4.12649 161.192C4.55422 158.702 5.95319 156.483 8.01589 155.025C10.0786 153.566 12.6362 152.986 15.1265 153.412C15.7086 153.502 16.2811 153.645 16.8364 153.842Z" fill="url(#paint5_linear_27_59)"/>
<path d="M250.776 172.302L149.196 189.702C149.196 189.702 149.196 189.702 149.196 189.642L245.596 154.042C247.775 153.196 250.185 153.161 252.387 153.942C254.59 154.724 256.438 156.272 257.596 158.302C258.252 159.505 258.642 160.836 258.738 162.203C258.835 163.571 258.636 164.943 258.155 166.226C257.674 167.51 256.922 168.675 255.951 169.642C254.979 170.609 253.811 171.356 252.526 171.832C251.957 172.04 251.372 172.197 250.776 172.302Z" fill="url(#paint6_linear_27_59)"/>
<path d="M256.946 134.142L161.946 176.932V176.872L246.526 115.952C248.798 114.319 251.626 113.654 254.387 114.104C257.149 114.554 259.62 116.082 261.256 118.352C262.066 119.476 262.647 120.749 262.966 122.097C263.284 123.446 263.334 124.844 263.112 126.212C262.89 127.58 262.401 128.891 261.672 130.069C260.944 131.248 259.99 132.272 258.866 133.082C258.263 133.498 257.619 133.853 256.946 134.142Z" fill="url(#paint7_linear_27_59)"/>
<path d="M249.807 92.422L166.427 159.592L233.347 76.5121C235.161 74.2005 237.77 72.6465 240.666 72.153C243.563 71.6594 246.54 72.2615 249.017 73.842C250.352 74.7345 251.487 75.8954 252.35 77.2507C253.212 78.6059 253.783 80.1259 254.025 81.7138C254.268 83.3017 254.178 84.9226 253.759 86.4736C253.341 88.0245 252.605 89.4714 251.597 90.7221C251.062 91.3509 250.462 91.9208 249.807 92.422Z" fill="url(#paint8_linear_27_59)"/>
<path d="M226.277 55.3523L161.727 142.212L204.517 43.2624C205.745 40.3118 208.029 37.9248 210.923 36.5676C213.817 35.2104 217.113 34.9803 220.167 35.9223C221.827 36.4678 223.355 37.3534 224.654 38.5227C225.953 39.692 226.993 41.1193 227.709 42.7134C228.425 44.3074 228.801 46.0333 228.813 47.7807C228.825 49.5282 228.472 51.2588 227.777 52.8623C227.371 53.7457 226.868 54.581 226.277 55.3523Z" fill="url(#paint9_linear_27_59)"/>
<path d="M58.4865 42.852L101.397 142.112H101.337L37.0765 55.652C35.1381 53.1104 34.2148 49.9383 34.4865 46.7533C34.7583 43.5684 36.2055 40.5986 38.5465 38.422C39.8513 37.2589 41.3839 36.3801 43.0467 35.8412C44.7096 35.3024 46.4663 35.1153 48.2053 35.2922C49.9443 35.469 51.6275 36.0059 53.1479 36.8683C54.6683 37.7308 55.9925 38.9002 57.0365 40.3022C57.6127 41.0959 58.0991 41.9509 58.4865 42.852Z" fill="url(#paint10_linear_27_59)"/>
<path d="M30.6164 194.412C28.8813 194.408 27.1784 194.881 25.6935 195.779C24.2085 196.676 22.9984 197.964 22.1949 199.502C21.3914 201.04 21.0254 202.769 21.1367 204.5C21.2481 206.232 21.8325 207.9 22.8264 209.322C35.126 226.707 51.4188 240.886 70.3356 250.667C89.2523 260.448 110.241 265.546 131.537 265.532C152.833 265.546 173.821 260.448 192.738 250.667C211.655 240.886 227.947 226.707 240.247 209.322C241.24 207.901 241.825 206.233 241.936 204.503C242.048 202.772 241.683 201.044 240.881 199.506C240.078 197.969 238.87 196.681 237.386 195.783C235.903 194.884 234.201 194.41 232.467 194.412H30.6164Z" fill="url(#paint11_radial_27_59)"/>
<defs>
<linearGradient id="paint0_linear_27_59" x1="131.577" y1="0.542428" x2="131.577" y2="123.912" gradientUnits="userSpaceOnUse">
<stop offset="0.21" stop-color="#78E6F9"/>
<stop offset="1" stop-color="#005283"/>
</linearGradient>
<linearGradient id="paint1_linear_27_59" x1="82.1563" y1="10.6125" x2="115.457" y2="128.642" gradientUnits="userSpaceOnUse">
<stop offset="0.21" stop-color="#78E6F9"/>
<stop offset="1" stop-color="#005283"/>
</linearGradient>
<linearGradient id="paint2_linear_27_59" x1="180.807" y1="10.1223" x2="150.147" y2="129.802" gradientUnits="userSpaceOnUse">
<stop offset="0.21" stop-color="#78E6F9"/>
<stop offset="1" stop-color="#005283"/>
</linearGradient>
<linearGradient id="paint3_linear_27_59" x1="12.7464" y1="75.7724" x2="96.7866" y2="157.832" gradientUnits="userSpaceOnUse">
<stop offset="0.21" stop-color="#78E6F9"/>
<stop offset="1" stop-color="#005283"/>
</linearGradient>
<linearGradient id="paint4_linear_27_59" x1="1.25622" y1="119.322" x2="102.407" y2="175.993" gradientUnits="userSpaceOnUse">
<stop offset="0.21" stop-color="#78E6F9"/>
<stop offset="1" stop-color="#005283"/>
</linearGradient>
<linearGradient id="paint5_linear_27_59" x1="3.83648" y1="160.202" x2="113.847" y2="189.522" gradientUnits="userSpaceOnUse">
<stop offset="0.21" stop-color="#78E6F9"/>
<stop offset="1" stop-color="#005283"/>
</linearGradient>
<linearGradient id="paint6_linear_27_59" x1="259.216" y1="160.072" x2="149.536" y2="191.032" gradientUnits="userSpaceOnUse">
<stop offset="0.21" stop-color="#78E6F9"/>
<stop offset="1" stop-color="#005283"/>
</linearGradient>
<linearGradient id="paint7_linear_27_59" x1="261.836" y1="119.112" x2="162.326" y2="177.432" gradientUnits="userSpaceOnUse">
<stop offset="0.21" stop-color="#78E6F9"/>
<stop offset="1" stop-color="#005283"/>
</linearGradient>
<linearGradient id="paint8_linear_27_59" x1="251.087" y1="74.772" x2="168.037" y2="159.132" gradientUnits="userSpaceOnUse">
<stop offset="0.21" stop-color="#78E6F9"/>
<stop offset="1" stop-color="#005283"/>
</linearGradient>
<linearGradient id="paint9_linear_27_59" x1="222.417" y1="36.9123" x2="162.757" y2="141.732" gradientUnits="userSpaceOnUse">
<stop offset="0.21" stop-color="#78E6F9"/>
<stop offset="1" stop-color="#005283"/>
</linearGradient>
<linearGradient id="paint10_linear_27_59" x1="40.7064" y1="37.182" x2="102.347" y2="142.332" gradientUnits="userSpaceOnUse">
<stop offset="0.21" stop-color="#78E6F9"/>
<stop offset="1" stop-color="#005283"/>
</linearGradient>
<radialGradient id="paint11_radial_27_59" cx="0" cy="0" r="1" gradientUnits="userSpaceOnUse" gradientTransform="translate(132.927 191.298) scale(113.77 70.5375)">
<stop stop-color="#1E77A1"/>
<stop offset="1" stop-color="#78E6F9"/>
</radialGradient>
</defs>
</svg>
