<svg width="264" height="266" viewBox="0 0 264 266" fill="none" xmlns="http://www.w3.org/2000/svg">
<path d="M146.053 16.5626L131.583 124.812H131.523L117.113 16.9625C116.585 13.3499 117.402 9.66913 119.41 6.61973C121.418 3.57033 124.476 1.36483 128.003 0.422458C129.998 -0.0674126 132.073 -0.132075 134.095 0.232761C136.116 0.597597 138.038 1.38382 139.736 2.54014C141.434 3.69645 142.869 5.19704 143.949 6.94443C145.028 8.69182 145.729 10.6469 146.003 12.6825C146.185 13.9684 146.202 15.2724 146.053 16.5626Z" fill="url(#paint0_linear_27_46)"/>
<path d="M99.0628 21.0023L114.173 129.432C114.173 129.432 114.173 129.482 114.113 129.432L73.1129 28.3521C71.7405 25.077 71.6765 21.4003 72.9342 18.0794C74.1918 14.7586 76.6753 12.0467 79.8729 10.5023C81.5444 9.73339 83.3543 9.31138 85.1934 9.26178C87.0326 9.21217 88.8628 9.53602 90.5733 10.2137C92.2838 10.8914 93.8392 11.9087 95.1453 13.2044C96.4515 14.5001 97.4814 16.0473 98.1728 17.7523C98.6001 18.7955 98.899 19.8869 99.0628 21.0023Z" fill="url(#paint1_linear_27_46)"/>
<path d="M190.123 27.9922L148.943 129.642C148.943 129.642 148.873 129.642 148.883 129.642L163.983 21.4221C164.436 17.8993 166.222 14.6843 168.973 12.4375C171.723 10.1907 175.23 9.08304 178.773 9.34223C180.604 9.51241 182.382 10.0521 183.999 10.9292C185.616 11.8062 187.038 13.0021 188.179 14.4445C189.321 15.8869 190.158 17.5459 190.64 19.321C191.121 21.0961 191.238 22.9506 190.983 24.7722C190.827 25.8762 190.538 26.9573 190.123 27.9922Z" fill="url(#paint2_linear_27_46)"/>
<path d="M29.7225 76.3126L96.7225 159.492L13.8425 92.7825C11.5309 90.9686 9.97712 88.3593 9.48355 85.4627C8.99 82.5661 9.59202 79.5894 11.1725 77.1124C12.0642 75.7761 13.2245 74.6402 14.5794 73.7769C15.9342 72.9136 17.454 72.3419 19.0419 72.0982C20.6298 71.8546 22.251 71.9443 23.8024 72.3616C25.3537 72.779 26.8012 73.515 28.0525 74.5225C28.6705 75.0589 29.2303 75.6589 29.7225 76.3126Z" fill="url(#paint3_linear_27_46)"/>
<path d="M16.6233 115.932L101.253 176.882C101.253 176.882 101.253 176.952 101.253 176.932L6.51319 134.272C3.91856 133.15 1.86738 131.055 0.799806 128.438C-0.267763 125.82 -0.266578 122.889 0.803224 120.272C1.35776 118.989 2.16156 117.83 3.16797 116.86C4.17439 115.891 5.36341 115.131 6.6659 114.625C7.96839 114.119 9.35846 113.876 10.7554 113.912C12.1523 113.947 13.5282 114.26 14.8032 114.832C15.444 115.139 16.0536 115.507 16.6233 115.932Z" fill="url(#paint4_linear_27_46)"/>
<path d="M16.833 153.842L113.913 189.652C113.913 189.652 113.913 189.722 113.913 189.712L11.913 172.192C9.42239 171.764 7.20331 170.366 5.74282 168.304C4.28233 166.241 3.69984 163.684 4.12307 161.192C4.55094 158.702 5.94943 156.483 8.01174 155.022C10.0741 153.562 12.6317 152.979 15.1231 153.402C15.7045 153.5 16.2765 153.647 16.833 153.842Z" fill="url(#paint5_linear_27_46)"/>
<path d="M250.773 172.302L149.193 189.722C149.193 189.722 149.193 189.672 149.193 189.662L245.593 154.062C247.772 153.216 250.182 153.181 252.384 153.962C254.587 154.744 256.435 156.292 257.593 158.322C258.249 159.525 258.639 160.856 258.735 162.223C258.832 163.591 258.633 164.963 258.152 166.246C257.671 167.53 256.919 168.695 255.948 169.662C254.976 170.629 253.808 171.376 252.523 171.852C251.954 172.053 251.368 172.204 250.773 172.302Z" fill="url(#paint6_linear_27_46)"/>
<path d="M256.943 134.142L161.943 176.932C161.943 176.932 161.883 176.932 161.943 176.872L246.523 115.952C247.648 115.142 248.921 114.561 250.27 114.244C251.619 113.926 253.017 113.877 254.385 114.1C255.753 114.323 257.064 114.813 258.242 115.543C259.421 116.272 260.444 117.227 261.253 118.352C262.064 119.476 262.645 120.749 262.963 122.097C263.282 123.446 263.332 124.844 263.11 126.212C262.888 127.58 262.398 128.891 261.67 130.069C260.941 131.248 259.987 132.272 258.863 133.082C258.26 133.498 257.617 133.853 256.943 134.142Z" fill="url(#paint7_linear_27_46)"/>
<path d="M249.803 92.4221L166.423 159.582L233.343 76.5022C235.155 74.1887 237.765 72.6333 240.662 72.1396C243.559 71.646 246.536 72.2495 249.013 73.8323C250.348 74.7248 251.483 75.8855 252.346 77.2407C253.208 78.596 253.779 80.116 254.021 81.7039C254.264 83.2917 254.174 84.9127 253.755 86.4636C253.337 88.0146 252.601 89.4615 251.593 90.7122C251.059 91.3445 250.459 91.9177 249.803 92.4221Z" fill="url(#paint8_linear_27_46)"/>
<path d="M226.273 55.3424L161.723 142.212L204.513 43.2122C205.745 40.2649 208.03 37.8817 210.923 36.5267C213.816 35.1717 217.11 34.9419 220.163 35.8822C221.823 36.4276 223.351 37.3135 224.65 38.4827C225.949 39.652 226.989 41.0791 227.705 42.6732C228.421 44.2672 228.797 45.9931 228.809 47.7406C228.821 49.488 228.468 51.2189 227.773 52.8223C227.372 53.7177 226.869 54.5634 226.273 55.3424Z" fill="url(#paint9_linear_27_46)"/>
<path d="M58.4831 42.8424L101.393 142.102C101.393 142.102 101.393 142.162 101.333 142.102L37.0731 55.6523C35.1347 53.1106 34.2114 49.9385 34.4831 46.7536C34.7549 43.5687 36.2021 40.5989 38.5431 38.4223C39.8472 37.2577 41.3797 36.3775 43.0427 35.8378C44.7057 35.2981 46.4629 35.1109 48.2024 35.2878C49.9418 35.4646 51.6253 36.0018 53.1457 36.8652C54.6661 37.7285 55.99 38.8992 57.0331 40.3024C57.607 41.094 58.0933 41.9457 58.4831 42.8424Z" fill="url(#paint10_linear_27_46)"/>
<path d="M30.6135 194.412C28.8784 194.408 27.1755 194.881 25.6906 195.779C24.2056 196.676 22.9955 197.964 22.192 199.502C21.3885 201.04 21.0225 202.769 21.1338 204.5C21.2452 206.232 21.8296 207.9 22.8235 209.322C35.1231 226.707 51.4159 240.886 70.3327 250.667C89.2494 260.448 110.238 265.546 131.534 265.532C152.83 265.546 173.818 260.448 192.735 250.667C211.652 240.886 227.944 226.707 240.244 209.322C241.237 207.901 241.822 206.233 241.933 204.503C242.045 202.772 241.68 201.044 240.878 199.506C240.075 197.969 238.867 196.681 237.383 195.783C235.9 194.885 234.198 194.41 232.464 194.412H30.6135Z" fill="url(#paint11_radial_27_46)"/>
<defs>
<linearGradient id="paint0_linear_27_46" x1="131.573" y1="0.542432" x2="131.573" y2="123.912" gradientUnits="userSpaceOnUse">
<stop offset="0.24" stop-color="#63BCF4"/>
<stop offset="0.68" stop-color="#78E6F9"/>
<stop offset="1" stop-color="#BCE7FF"/>
</linearGradient>
<linearGradient id="paint1_linear_27_46" x1="82.1529" y1="10.6122" x2="115.453" y2="128.642" gradientUnits="userSpaceOnUse">
<stop offset="0.24" stop-color="#63BCF4"/>
<stop offset="0.68" stop-color="#78E6F9"/>
<stop offset="1" stop-color="#BCE7FF"/>
</linearGradient>
<linearGradient id="paint2_linear_27_46" x1="180.803" y1="10.1222" x2="150.143" y2="129.802" gradientUnits="userSpaceOnUse">
<stop offset="0.24" stop-color="#63BCF4"/>
<stop offset="0.68" stop-color="#78E6F9"/>
<stop offset="1" stop-color="#BCE7FF"/>
</linearGradient>
<linearGradient id="paint3_linear_27_46" x1="12.7425" y1="75.7724" x2="96.7827" y2="157.832" gradientUnits="userSpaceOnUse">
<stop offset="0.24" stop-color="#63BCF4"/>
<stop offset="0.68" stop-color="#78E6F9"/>
<stop offset="1" stop-color="#BCE7FF"/>
</linearGradient>
<linearGradient id="paint4_linear_27_46" x1="1.25326" y1="119.322" x2="102.403" y2="175.992" gradientUnits="userSpaceOnUse">
<stop offset="0.24" stop-color="#63BCF4"/>
<stop offset="0.68" stop-color="#78E6F9"/>
<stop offset="1" stop-color="#BCE7FF"/>
</linearGradient>
<linearGradient id="paint5_linear_27_46" x1="3.83306" y1="160.202" x2="113.843" y2="189.522" gradientUnits="userSpaceOnUse">
<stop offset="0.24" stop-color="#63BCF4"/>
<stop offset="0.68" stop-color="#78E6F9"/>
<stop offset="1" stop-color="#BCE7FF"/>
</linearGradient>
<linearGradient id="paint6_linear_27_46" x1="259.213" y1="160.072" x2="149.533" y2="191.032" gradientUnits="userSpaceOnUse">
<stop offset="0.24" stop-color="#63BCF4"/>
<stop offset="0.68" stop-color="#78E6F9"/>
<stop offset="1" stop-color="#BCE7FF"/>
</linearGradient>
<linearGradient id="paint7_linear_27_46" x1="261.833" y1="119.112" x2="162.323" y2="177.432" gradientUnits="userSpaceOnUse">
<stop offset="0.24" stop-color="#63BCF4"/>
<stop offset="0.68" stop-color="#78E6F9"/>
<stop offset="1" stop-color="#BCE7FF"/>
</linearGradient>
<linearGradient id="paint8_linear_27_46" x1="251.083" y1="74.7721" x2="168.033" y2="159.132" gradientUnits="userSpaceOnUse">
<stop offset="0.24" stop-color="#63BCF4"/>
<stop offset="0.68" stop-color="#78E6F9"/>
<stop offset="1" stop-color="#BCE7FF"/>
</linearGradient>
<linearGradient id="paint9_linear_27_46" x1="222.413" y1="36.9122" x2="162.753" y2="141.732" gradientUnits="userSpaceOnUse">
<stop offset="0.24" stop-color="#63BCF4"/>
<stop offset="0.68" stop-color="#78E6F9"/>
<stop offset="1" stop-color="#BCE7FF"/>
</linearGradient>
<linearGradient id="paint10_linear_27_46" x1="40.703" y1="37.1823" x2="102.343" y2="142.332" gradientUnits="userSpaceOnUse">
<stop offset="0.24" stop-color="#63BCF4"/>
<stop offset="0.68" stop-color="#78E6F9"/>
<stop offset="1" stop-color="#BCE7FF"/>
</linearGradient>
<radialGradient id="paint11_radial_27_46" cx="0" cy="0" r="1" gradientUnits="userSpaceOnUse" gradientTransform="translate(136.066 187.519) rotate(90.31) scale(75.8301 113.745)">
<stop stop-color="#78E6F9"/>
<stop offset="1" stop-color="#63BCF4"/>
</radialGradient>
</defs>
</svg>
