<svg width="296" height="75" viewBox="0 0 296 75" fill="none" xmlns="http://www.w3.org/2000/svg">
<path d="M118.839 58.5571C127.251 58.5571 133.157 54.2114 133.157 46.4671V46.3557C133.157 39.5586 128.7 36.7171 120.789 34.6557C114.047 32.9286 112.376 32.0929 112.376 29.53V29.4186C112.376 27.5243 114.103 26.02 117.39 26.02C120.677 26.02 124.076 27.4686 127.53 29.8643L131.987 23.4014C128.031 20.2257 123.184 18.4429 117.501 18.4429C109.534 18.4429 103.851 23.1229 103.851 30.1986V30.31C103.851 38.0543 108.921 40.2271 116.777 42.2329C123.296 43.9043 124.633 45.0186 124.633 47.1914V47.3029C124.633 49.5871 122.516 50.98 119.006 50.98C114.549 50.98 110.871 49.1414 107.361 46.2443L102.291 52.3171C106.971 56.4957 112.933 58.5571 118.839 58.5571ZM148.371 58.5014C151.213 58.5014 153.274 57.8329 155.057 56.7743V49.9771C153.831 50.6457 152.438 51.0357 150.878 51.0357C148.984 51.0357 148.148 50.0886 148.148 48.1386V35.38H155.168V28.1371H148.148V20.5043H139.68V28.1371H136.114V35.38H139.68V49.5314C139.68 56.44 143.19 58.5014 148.371 58.5014ZM168.726 58.5571C172.849 58.5571 175.691 57.0529 177.752 54.7686V58H185.942V40.6729C185.942 36.6614 184.939 33.3743 182.711 31.1457C180.594 29.0286 177.251 27.8029 172.626 27.8029C167.556 27.8029 164.325 28.75 161.038 30.1986L163.155 36.6614C165.885 35.6586 168.169 35.0457 171.401 35.0457C175.635 35.0457 177.808 36.9957 177.808 40.5057V41.0071C175.691 40.2829 173.518 39.7814 170.509 39.7814C163.434 39.7814 158.475 42.79 158.475 49.3086V49.42C158.475 55.3257 163.099 58.5571 168.726 58.5571ZM171.289 52.7071C168.559 52.7071 166.665 51.37 166.665 49.0857V48.9743C166.665 46.3 168.894 44.8514 172.515 44.8514C174.576 44.8514 176.471 45.2971 177.919 45.9657V47.47C177.919 50.5343 175.245 52.7071 171.289 52.7071ZM201.889 58.5014C204.73 58.5014 206.792 57.8329 208.575 56.7743V49.9771C207.349 50.6457 205.956 51.0357 204.396 51.0357C202.502 51.0357 201.666 50.0886 201.666 48.1386V35.38H208.686V28.1371H201.666V20.5043H193.198V28.1371H189.632V35.38H193.198V49.5314C193.198 56.44 196.708 58.5014 201.889 58.5014ZM213.943 24.85H222.857V17.3286H213.943V24.85ZM214.166 58H222.634V28.1371H214.166V58ZM244.088 58.6686C253.392 58.6686 260.301 51.7043 260.301 43.1243V43.0129C260.301 34.4329 253.448 27.58 244.199 27.58C234.895 27.58 227.987 34.5443 227.987 43.1243V43.2357C227.987 51.8157 234.839 58.6686 244.088 58.6686ZM244.199 51.37C239.519 51.37 236.344 47.5257 236.344 43.1243V43.0129C236.344 38.6114 239.241 34.8786 244.088 34.8786C248.768 34.8786 251.944 38.7229 251.944 43.1243V43.2357C251.944 47.6371 249.047 51.37 244.199 51.37ZM265.28 58H273.749V41.3414C273.749 37.33 275.81 35.2686 279.042 35.2686C282.273 35.2686 284.167 37.33 284.167 41.3414V58H292.636V38.6671C292.636 31.8143 288.903 27.58 282.496 27.58C278.206 27.58 275.699 29.8643 273.749 32.3714V28.1371H265.28V58Z" fill="white"/>
<g clip-path="url(#clip0_234_2848)">
<path d="M18.7 23.67C16.76 27.5 17.01 31.75 19.12 34.27C18.6793 30.9949 19.27 27.6638 20.81 24.74C22.2848 21.7767 24.6293 19.3345 27.53 17.74H27.16C23.9 17.77 20.52 20.16 18.7 23.67Z" fill="#459CF4"/>
<path d="M70.89 42.2299C71 37.5699 69 33.3599 65.24 31.4199L62.47 29.9999L44.47 20.8799L37.41 17.2899C35.1601 16.2062 32.5899 15.989 30.19 16.6799L19.9 11.4599C15.32 9.14993 9.30004 11.8699 6.45004 17.4599C3.60004 23.0499 5.00004 29.5699 9.54004 31.8799C9.5938 31.9124 9.65077 31.9392 9.71004 31.9599L19.86 37.1599C20.7238 39.4835 22.4302 41.3969 24.64 42.5199C24.6817 42.5372 24.7284 42.5372 24.77 42.5199L52.45 56.5199C56.24 58.4599 60.82 57.5899 64.45 54.6999L68.2 56.5999L74.59 43.9799L70.84 42.1599L70.89 42.2299Z" fill="#459CF4"/>
<path d="M11.44 53.5801L29.14 63.0001L17.88 74.5301C17.8086 74.6181 17.7103 74.6805 17.6002 74.7076C17.4901 74.7346 17.3741 74.725 17.27 74.6801H17.22L0.299973 66.0001C0.164583 65.9259 0.0636292 65.8017 0.0187629 65.654C-0.0261034 65.5063 -0.0113092 65.347 0.0599726 65.2101C0.0853207 65.1606 0.115465 65.1137 0.149973 65.0701L11.44 53.5801ZM25.76 39.0001C25.8314 38.912 25.9296 38.8496 26.0398 38.8225C26.1499 38.7955 26.2659 38.8051 26.37 38.8501H26.42L43.33 47.4701C43.3998 47.5038 43.462 47.5515 43.5128 47.6102C43.5635 47.6688 43.6018 47.7372 43.6252 47.8112C43.6486 47.8851 43.6567 47.9631 43.6489 48.0403C43.6411 48.1175 43.6177 48.1922 43.58 48.2601L43.51 48.3701V48.4201L30.38 61.8301L12.64 52.3801L25.76 39.0001ZM67.42 48.4001C69.19 44.9001 72.42 42.9901 74.67 44.1201C76.92 45.2501 77.28 49.0101 75.51 52.5001C73.74 55.9901 70.51 57.9101 68.26 56.7801C66.01 55.6501 65.64 51.8601 67.42 48.3701V48.4001ZM27.16 16.0801C28.1883 16.0643 29.2091 16.2582 30.16 16.6501C29.3384 16.8866 28.5415 17.2014 27.78 17.5901L27.52 17.7301H27.15C23.89 17.7301 20.51 20.1601 18.69 23.6701C16.75 27.5001 17 31.7501 19.11 34.2701C19.2604 35.2262 19.5084 36.1644 19.85 37.0701C15.68 34.5601 14.53 28.3701 17.25 22.9201C19.4 18.6801 23.36 16.0801 27.16 16.0801ZM51.67 13.5201L69.36 23.0001L62.47 30.0001L44.47 20.8801L51.67 13.5201ZM64.7 0.190055C64.766 0.0950241 64.8619 0.0247371 64.9724 -0.00967728C65.0828 -0.0440916 65.2016 -0.0406668 65.31 5.51343e-05L82.28 8.69005C82.4187 8.76103 82.5251 8.88244 82.5771 9.02935C82.6292 9.17626 82.6231 9.33753 82.56 9.48005C82.5346 9.52955 82.5045 9.57644 82.47 9.62006L70.6 21.7301L52.86 12.2801L64.7 0.190055Z" fill="white"/>
</g>
<defs>
<clipPath id="clip0_234_2848">
<rect width="82.61" height="74.73" fill="white"/>
</clipPath>
</defs>
</svg>
