<svg width="504" height="155" viewBox="0 0 504 155" fill="none" xmlns="http://www.w3.org/2000/svg">
<path d="M0 77.5C0 50.3725 0 36.8087 5.26933 26.4473C9.90435 17.3332 17.3002 9.92324 26.397 5.27937C36.7386 0 50.2766 0 77.3525 0C104.428 0 117.966 0 128.308 5.27937C137.405 9.92324 144.801 17.3332 149.436 26.4473C154.705 36.8087 154.705 50.3725 154.705 77.5C154.705 104.628 154.705 118.191 149.436 128.553C144.801 137.667 137.405 145.077 128.308 149.721C117.966 155 104.428 155 77.3525 155C50.2766 155 36.7386 155 26.397 149.721C17.3002 145.077 9.90435 137.667 5.26933 128.553C0 118.191 0 104.628 0 77.5Z" fill="#14AFEB"/>
<path d="M80.5762 50.57C81.4541 59.5422 81.8928 64.0285 84.2444 67.3183C85.252 68.7279 86.4949 69.954 87.9181 70.9422C91.2396 73.2486 95.7314 73.6264 104.714 74.3817L108.513 74.7008L108.513 81.2054L104.714 81.5244C95.7314 82.2797 91.2396 82.6576 87.9181 84.9639C86.4949 85.9522 85.252 87.1782 84.2444 88.5878C81.8928 91.8776 81.4541 96.364 80.5762 105.336L74.1288 105.336C73.2509 96.364 72.8123 91.8776 70.4606 88.5878C69.453 87.1782 68.2102 85.9522 66.7869 84.9639C63.4654 82.6576 58.9736 82.2797 49.9906 81.5244L46.1925 81.2054V74.7008L49.9906 74.3817C58.9736 73.6264 63.4654 73.2486 66.7869 70.9422C68.2102 69.954 69.453 68.7279 70.4606 67.3183C72.8123 64.0285 73.2509 59.5422 74.1288 50.57H80.5762Z" fill="white"/>
<path fill-rule="evenodd" clip-rule="evenodd" d="M77.3525 17.5214C127.118 17.5214 137.784 28.1876 137.784 77.9531C137.784 127.719 127.118 138.385 77.3525 138.385C27.5871 138.385 16.9209 127.719 16.9209 77.9531C16.9209 28.1876 27.5871 17.5214 77.3525 17.5214ZM116.849 38.4064C102.213 23.7707 72.6538 29.6 50.827 51.4266C29.0001 73.2536 23.1708 102.813 37.8067 117.449C52.4428 132.085 82.0014 126.256 103.828 104.429C125.655 82.6018 131.484 53.0424 116.849 38.4064Z" fill="white"/>
<path fill-rule="evenodd" clip-rule="evenodd" d="M388.348 56.3389C409.358 56.3389 423.502 71.2828 423.502 94.2523C423.502 117.222 409.358 132.166 388.348 132.166C378.735 132.166 372.18 127.877 367.923 121.235V152.922H349.898V58.8208H367.923V67.9616C372.317 60.6281 379.147 56.3389 388.348 56.3389ZM386.837 70.1756C374.203 70.1758 366.376 78.4784 366.376 94.2523C366.376 110.303 375.576 118.744 386.837 118.744C398.509 118.744 405.651 110.303 405.651 94.2523C405.651 78.4782 398.509 70.1756 386.837 70.1756Z" fill="#2C2C2C"/>
<path fill-rule="evenodd" clip-rule="evenodd" d="M308.194 56.3389C330.066 56.3391 342.248 70.3258 342.386 94.4214V100.377H290.198C291.582 112.286 297.258 117.547 308.886 117.547C317.746 117.547 322.038 114.362 324.391 106.885L341.833 111.454C336.295 125.995 326.467 132.227 308.886 132.227C285.768 132.227 271.786 117.27 271.786 94.2822C271.786 71.2946 285.907 56.3389 308.194 56.3389ZM307.778 70.4644C296.427 70.4644 291.167 76.5571 290.059 88.1892H324.391C323.422 77.1109 318.853 70.4644 307.778 70.4644Z" fill="#2C2C2C"/>
<path d="M503.773 74.8858H489.002C481.62 74.8858 476.135 78.4659 476.135 88.2881V130.297H460.212V82.5541C460.212 69.4465 470.704 58.821 483.646 58.8208H503.79L503.773 74.8858Z" fill="#2C2C2C"/>
<path d="M210.187 70.6712L253.319 23.9122H277.346L228.822 76.5899L277.794 130.156H253.319L210.187 83.1005V130.156H192.173V23.9122H210.187V70.6712Z" fill="#2C2C2C"/>
<path d="M450.191 130.156H432.165V24.2192H450.191V130.156Z" fill="#2C2C2C"/>
</svg>
