<svg width="417" height="128" viewBox="0 0 417 128" fill="none" xmlns="http://www.w3.org/2000/svg">
<path d="M0 64C0 41.5979 0 30.3968 4.35974 21.8404C8.19467 14.3139 14.3139 8.19467 21.8404 4.35974C30.3968 0 41.5979 0 64 0C86.4021 0 97.6032 0 106.16 4.35974C113.686 8.19467 119.805 14.3139 123.64 21.8404C128 30.3968 128 41.5979 128 64C128 86.4021 128 97.6032 123.64 106.16C119.805 113.686 113.686 119.805 106.16 123.64C97.6032 128 86.4021 128 64 128C41.5979 128 30.3968 128 21.8404 123.64C14.3139 119.805 8.19467 113.686 4.35974 106.16C0 97.6032 0 86.4021 0 64Z" fill="#14AFEB"/>
<path d="M66.6672 41.3437C67.3936 48.7671 67.7565 52.4791 69.7022 55.201C70.5359 56.3673 71.5642 57.3817 72.7418 58.1993C75.4899 60.1076 79.2063 60.4202 86.6387 61.0451L89.7812 61.3091V66.6909L86.6387 66.9548C79.2063 67.5798 75.4899 67.8924 72.7418 69.8006C71.5642 70.6183 70.5359 71.6327 69.7022 72.799C67.7565 75.5209 67.3936 79.2328 66.6672 86.6562H61.3328C60.6064 79.2328 60.2435 75.5209 58.2978 72.799C57.4641 71.6327 56.4358 70.6183 55.2582 69.8006C52.5101 67.8924 48.7937 67.5798 41.3613 66.9548L38.2187 66.6909V61.3091L41.3613 61.0451C48.7937 60.4202 52.5101 60.1076 55.2582 58.1993C56.4358 57.3817 57.4641 56.3673 58.2978 55.201C60.2435 52.4791 60.6064 48.7671 61.3328 41.3437H66.6672Z" fill="white"/>
<path fill-rule="evenodd" clip-rule="evenodd" d="M64 14C105.175 14 114 22.825 114 64C114 105.175 105.175 114 64 114C22.825 114 14 105.175 14 64C14 22.825 22.825 14 64 14ZM96.6782 31.2798C84.5687 19.1705 60.1124 23.9936 42.0533 42.0525C23.9941 60.1117 19.171 84.5686 31.2806 96.6782C43.3902 108.788 67.8464 103.965 85.9055 85.9055C103.965 67.8463 108.788 43.3893 96.6782 31.2798Z" fill="white"/>
<path fill-rule="evenodd" clip-rule="evenodd" d="M321.311 46.525C338.695 46.525 350.397 58.8658 350.398 77.8342C350.398 96.8027 338.695 109.143 321.311 109.143C313.358 109.143 307.934 105.602 304.412 100.117V126.284H289.499V48.5746H304.412V56.1232C308.048 50.0671 313.699 46.525 321.311 46.525ZM320.061 57.9515C309.609 57.9516 303.132 64.808 303.132 77.8342C303.132 91.0891 310.745 98.0594 320.061 98.0596C329.719 98.0596 335.628 91.0893 335.628 77.8342C335.628 64.8078 329.719 57.9515 320.061 57.9515Z" fill="white"/>
<path fill-rule="evenodd" clip-rule="evenodd" d="M254.994 46.525C273.091 46.5252 283.169 58.0755 283.284 77.9738V82.8916H240.104C241.25 92.7262 245.946 97.0713 255.567 97.0713C262.897 97.0712 266.448 94.4412 268.395 88.2659L282.826 92.0397C278.244 104.047 270.113 109.194 255.567 109.194C236.439 109.194 224.87 96.8425 224.87 77.8589C224.87 58.8756 236.554 46.525 254.994 46.525ZM254.65 58.19C245.258 58.19 240.906 63.2213 239.99 72.8273H268.395C267.593 63.6787 263.813 58.19 254.65 58.19Z" fill="white"/>
<path d="M416.812 61.8412H404.591C398.483 61.8412 393.945 64.7977 393.945 72.9089V107.6H380.77V68.1737C380.77 57.3494 389.451 48.5748 400.16 48.5746H416.826L416.812 61.8412Z" fill="white"/>
<path d="M173.905 58.3608L209.591 19.7469H229.471L189.323 63.2484L229.842 107.484H209.591L173.905 68.6249V107.484H159V19.7469H173.905V58.3608Z" fill="white"/>
<path d="M372.479 107.484H357.565V20.0004H372.479V107.484Z" fill="white"/>
</svg>
